<svg width="22" height="22" viewBox="0 0 22 22" version="1.1" xmlns="http://www.w3.org/2000/svg" xmlns:xlink="http://www.w3.org/1999/xlink">
<title>svg</title>
<desc>Created using Figma</desc>
<g id="Canvas" transform="translate(-1964 -855)">
<g id="svg">
<g id="Shape">
<use xlink:href="#path0_fill" transform="translate(1964 855)" fill="#A0B0B9"/>
</g>
</g>
</g>
<defs>
<path id="path0_fill" fill-rule="evenodd" d="M 11 0L 0 5.2381L 0 6.28571C 0 6.86816 0.488403 7.33331 1.09119 7.33331L 20.9088 7.33331C 21.4995 7.33331 22 6.86401 22 6.28571L 22 5.2381L 11 0ZM 5.5 10.4762L 5.5 15.7143C 6.10828 15.7195 6.59998 16.1826 6.59998 16.762C 6.59998 17.3402 6.11377 17.8096 5.48889 17.8096L 3.31091 17.8096C 2.69714 17.8096 2.19995 17.3444 2.19995 16.762C 2.19995 16.1857 2.68176 15.7195 3.29993 15.7143L 3.29993 10.4762C 2.69165 10.471 2.19995 10.0079 2.19995 9.42859C 2.19995 8.85034 2.68616 8.38098 3.31091 8.38098L 5.48889 8.38098C 6.10278 8.38098 6.59998 8.84613 6.59998 9.42859C 6.59998 10.0048 6.11816 10.471 5.5 10.4762ZM 12.1001 15.7143L 12.1001 10.4762C 12.7183 10.471 13.2001 10.0048 13.2001 9.42859C 13.2001 8.84613 12.7029 8.38098 12.089 8.38098L 9.91101 8.38098C 9.28625 8.38098 8.80005 8.85034 8.80005 9.42859C 8.80005 10.0079 9.29175 10.471 9.90002 10.4762L 9.90002 15.7143C 9.28186 15.7195 8.80005 16.1857 8.80005 16.762C 8.80005 17.3444 9.29724 17.8096 9.91101 17.8096L 12.089 17.8096C 12.7128 17.8096 13.2001 17.3402 13.2001 16.762C 13.2001 16.1826 12.7084 15.7195 12.1001 15.7143ZM 18.7001 15.7143L 18.7001 10.4762C 19.3182 10.471 19.8 10.0048 19.8 9.42859C 19.8 8.84613 19.3029 8.38098 18.689 8.38098L 16.511 8.38098C 15.8862 8.38098 15.4 8.85034 15.4 9.42859C 15.4 10.0079 15.8917 10.471 16.5 10.4762L 16.5 15.7143C 15.8818 15.7195 15.4 16.1857 15.4 16.762C 15.4 17.3444 15.8972 17.8096 16.511 17.8096L 18.689 17.8096C 19.3127 17.8096 19.8 17.3402 19.8 16.762C 19.8 16.1826 19.3083 15.7195 18.7001 15.7143ZM 0 19.9047C 0 19.3254 0.500488 18.8571 1.09119 18.8571L 20.9088 18.8571C 21.5116 18.8571 22 19.3212 22 19.9047L 22 20.9523C 22 21.5317 21.4995 22 20.9088 22L 1.09119 22C 0.488403 22 0 21.5359 0 20.9523L 0 19.9047Z"/>
</defs>
</svg>
