<svg width="16" height="8" viewBox="0 0 16 8" version="1.1" xmlns="http://www.w3.org/2000/svg" xmlns:xlink="http://www.w3.org/1999/xlink">
<title>plane-taking-off</title>
<desc>Created using Figma</desc>
<g id="Canvas" transform="translate(-6109 -383)">
<g id="plane-taking-off">
<g id="Combined Shape">
<use xlink:href="#path0_fill" transform="translate(6109 383)" fill="#A0B0B9"/>
</g>
</g>
</g>
<defs>
<path id="path0_fill" fill-rule="evenodd" d="M 14.8985 0C 15.523 0 15.8003 0.266449 15.9278 0.499512C 16.2906 1.258 15.2217 2.11993 14.1001 2.67355L 11.7012 3.89105L 6.92532 6.31509L 3.64651 7.97821C 3.57473 8.01468 3.48733 8.0047 3.42581 7.95328L 0.0683831 5.13138C 0.0425042 5.10947 0.022973 5.0817 0.0117425 5.05112C 0.00148858 5.02365 -0.00241767 4.9939 0.00148858 4.96402C 0.0088128 4.90088 0.0478753 4.84546 0.105981 4.81607L 0.370141 4.67764C 0.427758 4.64816 0.497094 4.64862 0.5552 4.67883L 3.61672 5.14188C 3.61672 5.14188 4.62356 4.62683 6.00442 3.92972C 5.8926 3.82922 5.70413 3.65286 5.69827 3.65732L 4.0093 2.09784C 3.64016 1.75726 3.33645 1.4776 3.26272 1.41083C 3.34329 1.38705 3.51956 1.31134 3.68801 1.23911C 3.87014 1.16104 4.0425 1.08701 4.07424 1.08701C 4.13479 1.08701 8.58987 2.62885 8.58987 2.62885L 8.49465 2.68094C 10.5757 1.64523 12.7066 0.608551 13.4976 0.302155C 13.5279 0.289795 14.2422 0 14.8985 0Z"/>
</defs>
</svg>
